<?xml version="1.0" encoding="iso-8859-1"?>
<!-- Generator: Adobe Illustrator 19.0.0, SVG Export Plug-In . SVG Version: 6.00 Build 0)  -->
<svg version="1.1" id="Capa_1" xmlns="http://www.w3.org/2000/svg" xmlns:xlink="http://www.w3.org/1999/xlink" x="0px" y="0px"
	 viewBox="0 0 512 512" style="enable-background:new 0 0 512 512;" xml:space="preserve">
<g>
	<g>
		<path d="M363.355,374.639c-19.379-19.375-50.831-19.485-70.355-0.338c-19.524-19.147-50.977-19.039-70.355,0.339
			c-19.494,19.495-19.494,51.216,0,70.711c9.747,9.747,22.551,14.621,35.355,14.621c12.651,0,25.296-4.767,35-14.282
			c9.703,9.515,22.348,14.281,35,14.281c12.804,0,25.608-4.873,35.356-14.62C382.85,425.856,382.85,394.135,363.355,374.639z
			 M272.143,424.137c-7.799,7.798-20.487,7.799-28.284,0.001c-7.798-7.798-7.798-20.487,0-28.285
			c3.899-3.898,9.021-5.848,14.142-5.848c5.121,0,10.243,1.949,14.142,5.848C279.939,403.651,279.939,416.34,272.143,424.137z
			 M342.143,424.137c-7.799,7.798-20.489,7.799-28.284,0.001c-7.798-7.798-7.798-20.487-0.001-28.284
			c3.899-3.899,9.021-5.849,14.143-5.849s10.243,1.949,14.142,5.848C349.939,403.651,349.939,416.34,342.143,424.137z"/>
	</g>
</g>
<g>
	<g>
		<rect x="290" y="292" width="80" height="30"/>
	</g>
</g>
<g>
	<g>
		<rect x="69" y="292" width="178" height="30"/>
	</g>
</g>
<g>
	<g>
		<path d="M501.736,172.792L339.004,10.233c-13.652-13.637-35.865-13.64-49.518,0L87.507,211.996H35c-19.299,0-35,15.701-35,35v230
			c0,19.299,15.701,35,35,35h360c19.299,0,35-15.701,35-35V293.96l71.736-71.659C508.355,215.69,512,206.899,512,197.547
			C512,188.194,508.355,179.403,501.736,172.792z M310.688,31.458c1.961-1.959,5.153-1.959,7.114,0l31.825,31.791L200.72,211.996
			h-70.764L310.688,31.458z M400,476.996c0,2.757-2.243,5-5,5H35c-2.757,0-5-2.243-5-5v-230c0-2.757,2.243-5,5-5h360
			c2.757,0,5,2.243,5,5V476.996z M480.535,201.076L430,251.556v-4.561c0-19.299-15.701-35-35-35H243.169L370.851,84.45
			l109.684,109.566c1.274,1.273,1.465,2.758,1.465,3.53C482,198.318,481.81,199.802,480.535,201.076z"/>
	</g>
</g>
<g>
</g>
<g>
</g>
<g>
</g>
<g>
</g>
<g>
</g>
<g>
</g>
<g>
</g>
<g>
</g>
<g>
</g>
<g>
</g>
<g>
</g>
<g>
</g>
<g>
</g>
<g>
</g>
<g>
</g>
</svg>
